<svg width="116" height="18" viewBox="0 0 116 18" fill="none" xmlns="http://www.w3.org/2000/svg">
    <path d="M5.624 17.336C4.072 17.336 2.8 17 1.808 16.328C0.816 15.656 0.216 14.696 0.00800008 13.448L2.792 12.728C2.904 13.288 3.088 13.728 3.344 14.048C3.616 14.368 3.944 14.6 4.328 14.744C4.728 14.872 5.16 14.936 5.624 14.936C6.328 14.936 6.848 14.816 7.184 14.576C7.52 14.32 7.688 14.008 7.688 13.64C7.688 13.272 7.528 12.992 7.208 12.8C6.888 12.592 6.376 12.424 5.672 12.296L5 12.176C4.168 12.016 3.408 11.8 2.72 11.528C2.032 11.24 1.48 10.848 1.064 10.352C0.648 9.856 0.44 9.216 0.44 8.432C0.44 7.248 0.872 6.344 1.736 5.72C2.6 5.08 3.736 4.76 5.144 4.76C6.472 4.76 7.576 5.056 8.456 5.648C9.336 6.24 9.912 7.016 10.184 7.976L7.376 8.84C7.248 8.232 6.984 7.8 6.584 7.544C6.2 7.288 5.72 7.16 5.144 7.16C4.568 7.16 4.128 7.264 3.824 7.472C3.52 7.664 3.368 7.936 3.368 8.288C3.368 8.672 3.528 8.96 3.848 9.152C4.168 9.328 4.6 9.464 5.144 9.56L5.816 9.68C6.712 9.84 7.52 10.056 8.24 10.328C8.976 10.584 9.552 10.96 9.968 11.456C10.4 11.936 10.616 12.592 10.616 13.424C10.616 14.672 10.16 15.64 9.248 16.328C8.352 17 7.144 17.336 5.624 17.336ZM17.5916 17C16.8076 17 16.1676 16.76 15.6716 16.28C15.1916 15.784 14.9516 15.128 14.9516 14.312V7.592H11.9756V5.096H14.9516V1.4H17.9756V5.096H21.2396V7.592H17.9756V13.784C17.9756 14.264 18.1996 14.504 18.6476 14.504H20.9516V17H17.5916ZM27.6729 17.336C26.8249 17.336 26.0649 17.192 25.3929 16.904C24.7209 16.6 24.1849 16.168 23.7849 15.608C23.4009 15.032 23.2089 14.336 23.2089 13.52C23.2089 12.704 23.4009 12.024 23.7849 11.48C24.1849 10.92 24.7289 10.504 25.4169 10.232C26.1209 9.944 26.9209 9.8 27.8169 9.8H31.0809V9.128C31.0809 8.568 30.9049 8.112 30.5529 7.76C30.2009 7.392 29.6409 7.208 28.8729 7.208C28.1209 7.208 27.5609 7.384 27.1929 7.736C26.8249 8.072 26.5849 8.512 26.4729 9.056L23.6889 8.12C23.8809 7.512 24.1849 6.96 24.6009 6.464C25.0329 5.952 25.6009 5.544 26.3049 5.24C27.0249 4.92 27.8969 4.76 28.9209 4.76C30.4889 4.76 31.7289 5.152 32.6409 5.936C33.5529 6.72 34.0089 7.856 34.0089 9.344V13.784C34.0089 14.264 34.2329 14.504 34.6809 14.504H35.6409V17H33.6249C33.0329 17 32.5449 16.856 32.1609 16.568C31.7769 16.28 31.5849 15.896 31.5849 15.416V15.392H31.1289C31.0649 15.584 30.9209 15.84 30.6969 16.16C30.4729 16.464 30.1209 16.736 29.6409 16.976C29.1609 17.216 28.5049 17.336 27.6729 17.336ZM28.2009 14.888C29.0489 14.888 29.7369 14.656 30.2649 14.192C30.8089 13.712 31.0809 13.08 31.0809 12.296V12.056H28.0329C27.4729 12.056 27.0329 12.176 26.7129 12.416C26.3929 12.656 26.2329 12.992 26.2329 13.424C26.2329 13.856 26.4009 14.208 26.7369 14.48C27.0729 14.752 27.5609 14.888 28.2009 14.888ZM37.8519 17V5.096H40.8279V6.44H41.2599C41.4359 5.96 41.7239 5.608 42.1239 5.384C42.5399 5.16 43.0199 5.048 43.5639 5.048H45.0039V7.736H43.5159C42.7479 7.736 42.1159 7.944 41.6199 8.36C41.1239 8.76 40.8759 9.384 40.8759 10.232V17H37.8519ZM52.0303 17.336C50.4783 17.336 49.2063 17 48.2143 16.328C47.2223 15.656 46.6223 14.696 46.4143 13.448L49.1983 12.728C49.3103 13.288 49.4943 13.728 49.7503 14.048C50.0223 14.368 50.3503 14.6 50.7343 14.744C51.1343 14.872 51.5663 14.936 52.0303 14.936C52.7343 14.936 53.2543 14.816 53.5903 14.576C53.9263 14.32 54.0943 14.008 54.0943 13.64C54.0943 13.272 53.9343 12.992 53.6143 12.8C53.2943 12.592 52.7823 12.424 52.0783 12.296L51.4062 12.176C50.5743 12.016 49.8143 11.8 49.1263 11.528C48.4383 11.24 47.8863 10.848 47.4703 10.352C47.0543 9.856 46.8463 9.216 46.8463 8.432C46.8463 7.248 47.2783 6.344 48.1423 5.72C49.0063 5.08 50.1423 4.76 51.5503 4.76C52.8783 4.76 53.9823 5.056 54.8623 5.648C55.7423 6.24 56.3183 7.016 56.5903 7.976L53.7823 8.84C53.6543 8.232 53.3903 7.8 52.9903 7.544C52.6063 7.288 52.1263 7.16 51.5503 7.16C50.9743 7.16 50.5343 7.264 50.2303 7.472C49.9263 7.664 49.7743 7.936 49.7743 8.288C49.7743 8.672 49.9343 8.96 50.2543 9.152C50.5743 9.328 51.0063 9.464 51.5503 9.56L52.2223 9.68C53.1183 9.84 53.9263 10.056 54.6463 10.328C55.3823 10.584 55.9583 10.96 56.3743 11.456C56.8063 11.936 57.0223 12.592 57.0223 13.424C57.0223 14.672 56.5663 15.64 55.6543 16.328C54.7583 17 53.5503 17.336 52.0303 17.336Z" fill="white"/>
    <path d="M66.8242 17.336C65.7522 17.336 64.9282 17.152 64.3522 16.784C63.7762 16.416 63.3522 16.008 63.0802 15.56H62.6482V17H59.6722V0.199999H62.6962V6.464H63.1282C63.3042 6.176 63.5362 5.904 63.8242 5.648C64.1282 5.392 64.5202 5.184 65.0002 5.024C65.4962 4.848 66.1042 4.76 66.8242 4.76C67.7842 4.76 68.6722 5 69.4882 5.48C70.3042 5.944 70.9602 6.632 71.4562 7.544C71.9522 8.456 72.2002 9.56 72.2002 10.856V11.24C72.2002 12.536 71.9522 13.64 71.4562 14.552C70.9602 15.464 70.3042 16.16 69.4882 16.64C68.6722 17.104 67.7842 17.336 66.8242 17.336ZM65.9122 14.696C66.8402 14.696 67.6162 14.4 68.2402 13.808C68.8642 13.2 69.1762 12.32 69.1762 11.168V10.928C69.1762 9.776 68.8642 8.904 68.2402 8.312C67.6322 7.704 66.8562 7.4 65.9122 7.4C64.9842 7.4 64.2082 7.704 63.5842 8.312C62.9602 8.904 62.6482 9.776 62.6482 10.928V11.168C62.6482 12.32 62.9602 13.2 63.5842 13.808C64.2082 14.4 64.9842 14.696 65.9122 14.696ZM80.6409 17.336C79.4569 17.336 78.3929 17.096 77.4489 16.616C76.5049 16.136 75.7609 15.44 75.2169 14.528C74.6729 13.616 74.4009 12.52 74.4009 11.24V10.856C74.4009 9.576 74.6729 8.48 75.2169 7.568C75.7609 6.656 76.5049 5.96 77.4489 5.48C78.3929 5 79.4569 4.76 80.6409 4.76C81.8249 4.76 82.8889 5 83.8329 5.48C84.7769 5.96 85.5209 6.656 86.0649 7.568C86.6089 8.48 86.8809 9.576 86.8809 10.856V11.24C86.8809 12.52 86.6089 13.616 86.0649 14.528C85.5209 15.44 84.7769 16.136 83.8329 16.616C82.8889 17.096 81.8249 17.336 80.6409 17.336ZM80.6409 14.648C81.5689 14.648 82.3369 14.352 82.9449 13.76C83.5529 13.152 83.8569 12.288 83.8569 11.168V10.928C83.8569 9.808 83.5529 8.952 82.9449 8.36C82.3529 7.752 81.5849 7.448 80.6409 7.448C79.7129 7.448 78.9449 7.752 78.3369 8.36C77.7289 8.952 77.4249 9.808 77.4249 10.928V11.168C77.4249 12.288 77.7289 13.152 78.3369 13.76C78.9449 14.352 79.7129 14.648 80.6409 14.648ZM95.3362 17.336C94.1522 17.336 93.0882 17.096 92.1442 16.616C91.2002 16.136 90.4562 15.44 89.9122 14.528C89.3682 13.616 89.0962 12.52 89.0962 11.24V10.856C89.0962 9.576 89.3682 8.48 89.9122 7.568C90.4562 6.656 91.2002 5.96 92.1442 5.48C93.0882 5 94.1522 4.76 95.3362 4.76C96.5202 4.76 97.5842 5 98.5282 5.48C99.4722 5.96 100.216 6.656 100.76 7.568C101.304 8.48 101.576 9.576 101.576 10.856V11.24C101.576 12.52 101.304 13.616 100.76 14.528C100.216 15.44 99.4722 16.136 98.5282 16.616C97.5842 17.096 96.5202 17.336 95.3362 17.336ZM95.3362 14.648C96.2642 14.648 97.0322 14.352 97.6402 13.76C98.2482 13.152 98.5522 12.288 98.5522 11.168V10.928C98.5522 9.808 98.2482 8.952 97.6402 8.36C97.0482 7.752 96.2802 7.448 95.3362 7.448C94.4082 7.448 93.6402 7.752 93.0322 8.36C92.4242 8.952 92.1202 9.808 92.1202 10.928V11.168C92.1202 12.288 92.4242 13.152 93.0322 13.76C93.6402 14.352 94.4082 14.648 95.3362 14.648ZM104.368 17V0.199999H107.392V9.488H107.824L111.76 5.096H115.696L110.2 10.856L115.888 17H112L107.824 12.272H107.392V17H104.368Z" fill="#5375EE"/>
</svg>
