<svg width="20" height="20" viewBox="0 0 20 20" fill="none" xmlns="http://www.w3.org/2000/svg">
    <path d="M8.90104 12.1042V12.2812H10.875V12.1042C10.8785 11.7639 10.9219 11.4774 11.0052 11.2448C11.092 11.0122 11.2222 10.8073 11.3958 10.6302C11.5729 10.4531 11.7986 10.283 12.0729 10.1198C12.3993 9.92535 12.6823 9.70833 12.9219 9.46875C13.1615 9.22569 13.3472 8.94792 13.4792 8.63542C13.6146 8.31944 13.6823 7.95833 13.6823 7.55208C13.6823 6.94444 13.5312 6.42535 13.2292 5.99479C12.9271 5.56424 12.5104 5.23611 11.9792 5.01042C11.4479 4.78125 10.8368 4.66667 10.1458 4.66667C9.51736 4.66667 8.94271 4.77951 8.42188 5.00521C7.90104 5.22743 7.48264 5.56597 7.16667 6.02083C6.85069 6.47222 6.68403 7.04514 6.66667 7.73958H8.79167C8.80208 7.45486 8.87153 7.21701 9 7.02604C9.12847 6.8316 9.2934 6.68576 9.49479 6.58854C9.69618 6.48785 9.90972 6.4375 10.1354 6.4375C10.3681 6.4375 10.5799 6.48611 10.7708 6.58333C10.9653 6.68056 11.1198 6.81944 11.2344 7C11.349 7.18056 11.4062 7.39062 11.4062 7.63021C11.4062 7.8559 11.3559 8.06076 11.2552 8.24479C11.1545 8.42535 11.0191 8.59028 10.849 8.73958C10.6788 8.88889 10.4861 9.03299 10.2708 9.17188C9.98264 9.35243 9.73611 9.55382 9.53125 9.77604C9.32639 9.99826 9.17014 10.2899 9.0625 10.651C8.95833 11.0122 8.90451 11.4965 8.90104 12.1042Z" fill="#5375EE"/>
    <path d="M9.04167 15.25C9.28819 15.4931 9.58507 15.6146 9.93229 15.6146C10.1545 15.6146 10.3594 15.559 10.5469 15.4479C10.7344 15.3333 10.8854 15.1823 11 14.9948C11.1181 14.8038 11.1788 14.5938 11.1823 14.3646C11.1788 14.0243 11.0521 13.7326 10.8021 13.4896C10.5521 13.2465 10.2622 13.125 9.93229 13.125C9.58507 13.125 9.28819 13.2465 9.04167 13.4896C8.79861 13.7326 8.67882 14.0243 8.68229 14.3646C8.67882 14.7083 8.79861 15.0035 9.04167 15.25Z" fill="#5375EE"/>
    <path fill-rule="evenodd" clip-rule="evenodd" d="M20 10C20 15.5228 15.5228 20 10 20C4.47715 20 0 15.5228 0 10C0 4.47715 4.47715 0 10 0C15.5228 0 20 4.47715 20 10ZM18 10C18 14.4183 14.4183 18 10 18C5.58172 18 2 14.4183 2 10C2 5.58172 5.58172 2 10 2C14.4183 2 18 5.58172 18 10Z" fill="#5375EE"/>
</svg>
